<svg width="52" height="53" viewBox="0 0 52 53" fill="none" xmlns="http://www.w3.org/2000/svg">
<g clip-path="url(#clip0_23_88)">
<mask id="mask0_23_88" style="mask-type:luminance" maskUnits="userSpaceOnUse" x="0" y="0" width="52" height="53">
<path d="M52 0H0V52.3059H52V0Z" fill="white"/>
</mask>
<g mask="url(#mask0_23_88)">
<path d="M10.4296 33.7901C9.8543 33.5221 9.17831 33.6169 8.69407 34.032L2.19423 39.6221C1.83349 39.9327 1.62549 40.3871 1.62549 40.8643V50.6715C1.62549 51.5737 2.35347 52.306 3.25045 52.306H9.7503C10.6473 52.306 11.3753 51.5737 11.3753 50.6715V35.2743C11.3753 34.6368 11.0048 34.0582 10.4296 33.7901Z" fill="#69CA9E"/>
<path d="M23.4291 22.5772C22.8571 22.3092 22.1779 22.404 21.6936 22.8192L15.1938 28.4092C14.833 28.7198 14.625 29.1742 14.625 29.6515V50.6714C14.625 51.5736 15.353 52.3059 16.25 52.3059H22.7499C23.6468 52.3059 24.3748 51.5736 24.3748 50.6714V24.0614C24.3748 23.4239 24.0043 22.842 23.4291 22.5772Z" fill="#69CA9E"/>
<path d="M36.429 11.3644C35.8538 11.0963 35.1778 11.1911 34.6936 11.6063L28.1937 17.1963C27.833 17.5069 27.625 17.9613 27.625 18.4386V50.6713C27.625 51.5736 28.353 52.3058 29.25 52.3058H35.7498C36.6468 52.3058 37.3748 51.5736 37.3748 50.6713V12.8485C37.3748 12.211 37.0075 11.6324 36.429 11.3644Z" fill="#69CA9E"/>
<path d="M49.4286 0.151608C48.8566 -0.116453 48.1741 -0.0249203 47.6931 0.393517L41.1933 5.98358C40.8325 6.29414 40.6245 6.74853 40.6245 7.22581V50.6714C40.6245 51.5736 41.3525 52.3059 42.2495 52.3059H48.7493C49.6463 52.3059 50.3743 51.5736 50.3743 50.6714V1.63575C50.3743 0.99829 50.0071 0.4164 49.4286 0.151608Z" fill="#69CA9E"/>
</g>
</g>
<defs>
<clipPath id="clip0_23_88">
<rect width="52" height="53" fill="white"/>
</clipPath>
</defs>
</svg>
