<svg width="52" height="52" viewBox="0 0 52 52" fill="none" xmlns="http://www.w3.org/2000/svg">
<g clip-path="url(#clip0_23_82)">
<mask id="mask0_23_82" style="mask-type:luminance" maskUnits="userSpaceOnUse" x="0" y="0" width="52" height="52">
<path d="M52 0H0V52H52V0Z" fill="white"/>
</mask>
<g mask="url(#mask0_23_82)">
<path d="M44.3596 7.63941C34.1749 -2.5454 17.8276 -2.54885 7.63941 7.63941C-2.5454 17.8241 -2.54885 34.1714 7.63941 44.3596C17.8241 54.5444 34.1714 54.5479 44.3596 44.3596C54.5444 34.175 54.5479 17.8276 44.3596 7.63941ZM24.4764 13.8144C24.4764 12.9732 25.1583 12.2913 25.9995 12.2913C26.8407 12.2913 27.5226 12.9732 27.5226 13.8144V21.9378C27.5226 22.779 26.8407 23.4609 25.9995 23.4609C25.1583 23.4609 24.4764 22.779 24.4764 21.9378V13.8144ZM25.9995 37.2707C19.7845 37.2707 14.7283 32.2145 14.7283 25.9995C14.7283 22.7475 16.1333 19.6538 18.5834 17.5117C19.2167 16.958 20.1789 17.0224 20.7326 17.6557C21.2863 18.2889 21.2218 19.2512 20.5886 19.8049C18.8004 21.3686 17.7747 23.6265 17.7747 25.9995C17.7747 30.5348 21.4643 34.2244 25.9996 34.2244C30.5349 34.2244 34.2246 30.5348 34.2246 25.9995C34.2246 23.6496 33.2156 21.4065 31.4565 19.8453C30.8273 19.2869 30.77 18.3243 31.3283 17.6951C31.8866 17.0658 32.8493 17.0085 33.4785 17.5668C35.8886 19.7057 37.2708 22.7793 37.2708 25.9994C37.2707 32.2145 32.2145 37.2707 25.9995 37.2707Z" fill="#2E7AF6"/>
</g>
</g>
<defs>
<clipPath id="clip0_23_82">
<rect width="52" height="52" fill="white"/>
</clipPath>
</defs>
</svg>
