<svg width="52" height="52" viewBox="0 0 52 52" fill="none" xmlns="http://www.w3.org/2000/svg">
<path d="M7.0354 0V10.612H24.4767V0H7.0354ZM13.8647 7.0133H10.8179V3.59866H13.8647V7.0133ZM17.6472 7.0133V3.59866H20.6941V7.0134L17.6472 7.0133Z" fill="#BA4AF6"/>
<path d="M34.353 0V10.612H44.9649V0H34.353ZM38.1355 7.0133V3.59866H41.1824V7.0134L38.1355 7.0133Z" fill="#BA4AF6"/>
<path d="M41.1824 27.6854H44.9649V13.6587H34.353V27.6854H38.1355V51.9999H41.1824V27.6854Z" fill="#BA4AF6"/>
<path d="M17.2795 35.653H21.1699C21.6474 32.266 23.5861 29.6638 24.4767 28.6221V13.6587H7.0354V28.6222C7.9261 29.6639 9.86473 32.2661 10.3422 35.6531H14.2326V51.9999H17.2795V35.653Z" fill="#BA4AF6"/>
</svg>
