<svg width="52" height="52" viewBox="0 0 52 52" fill="none" xmlns="http://www.w3.org/2000/svg">
<g clip-path="url(#clip0_23_107)">
<path d="M40.8527 1.86548C40.8527 1.15989 40.4442 0.491429 39.8128 0.194336C39.1444 -0.139894 38.4016 -0.0284837 37.8446 0.417156L21.3931 13.5264L40.8527 32.986V1.86548Z" fill="#FAAE04"/>
<path d="M51.4514 48.8286L3.17381 0.550936C2.44965 -0.173229 1.27241 -0.173229 0.54825 0.550936C-0.175914 1.2751 -0.175914 2.45233 0.54825 3.1765L12.2314 14.8634H11.1433C9.9921 14.8634 8.98941 15.3833 8.32095 16.2003C7.7639 16.8316 7.42967 17.6858 7.42967 18.5771V33.4317C7.42967 35.4742 9.10082 37.1454 11.1433 37.1454H19.759L37.8446 51.5915C38.1788 51.8515 38.5873 52 38.9958 52C39.2558 52 39.5529 51.9258 39.8128 51.8144C40.4441 51.5173 40.8526 50.8488 40.8526 50.1432V43.4846L48.8222 51.4541C49.1861 51.8181 49.6615 52 50.1368 52C50.6122 52 51.0875 51.8181 51.4514 51.4578C52.1756 50.73 52.1756 49.5564 51.4514 48.8286Z" fill="#FAAE04"/>
</g>
<defs>
<clipPath id="clip0_23_107">
<rect width="52" height="52" fill="white"/>
</clipPath>
</defs>
</svg>
