<svg width="18" height="16" viewBox="0 0 18 16" fill="none" xmlns="http://www.w3.org/2000/svg">
<path d="M15.6079 13.7405L18.0001 14.827C18.0001 15.4271 17.5137 15.9135 16.9135 15.9135H15.6079V13.7405Z" fill="#9CBFF0"/>
<path d="M0 14.827C0 15.4271 0.486398 15.9135 1.08652 15.9135H7.60563L9 15.2163L10.3944 15.9135H15.6323C16.2324 15.9135 16.7188 15.4271 16.7188 14.827L9 11.5674L0 14.827Z" fill="#C0D4ED"/>
<path d="M6.51904 14.827L8.99993 13.1972L11.4808 14.827C11.4808 15.4271 10.9944 15.9135 10.3943 15.9135H7.60556C7.00544 15.9135 6.51904 15.4271 6.51904 14.827Z" fill="#69A7FF"/>
<path d="M15.6028 10.9916C15.4043 10.674 15.0563 10.4809 14.6814 10.4809L9 8.85114L16.7188 14.827H18L15.6028 10.9916Z" fill="#C0D4ED"/>
<path d="M14.3216 10.9916L14.6815 11.5674L13.9095 12.3823L15.7001 13.1972L16.7188 14.827H0L2.39722 10.9916C2.59569 10.674 2.94374 10.4809 3.31859 10.4809L9 8.85114L13.4002 10.4809C13.775 10.4809 14.1231 10.674 14.3216 10.9916Z" fill="#DEECFF"/>
<path d="M14.6813 11.5674H13.4L12.8228 12.3823L14.4186 13.1972H15.6999L14.6813 11.5674Z" fill="#69A7FF"/>
<path d="M3.31842 11.5674L2.2998 13.1972H14.4188L13.4002 11.5674H3.31842Z" fill="#9CBFF0"/>
<path d="M14.6817 0.0865479H13.5952V10.4809H14.6817C15.2818 10.4809 15.7683 9.99448 15.7683 9.3944V1.17307C15.7683 0.572982 15.2818 0.0865479 14.6817 0.0865479Z" fill="#404242"/>
<path d="M14.6815 9.39436V8.85048L13.0517 5.01178L14.6815 1.17307C14.6815 0.572982 14.195 0.0865479 13.5949 0.0865479H3.31845C2.71837 0.0865479 2.23193 0.572982 2.23193 1.17307V9.3944C2.23193 9.99448 2.71837 10.4809 3.31845 10.4809H13.5949C14.195 10.4809 14.6815 9.99444 14.6815 9.39436Z" fill="#565959"/>
<path d="M14.6815 1.17299L13.5952 1.1723C13.5952 1.17248 6.76807 5.01173 6.76807 5.01173C6.76807 5.01173 13.5951 8.85106 13.595 8.85113L14.6815 8.85051C14.6815 8.85051 14.6814 1.17314 14.6815 1.17299Z" fill="#4B88D5"/>
<path d="M10.5364 1.1731L9.76815 1.94137C9.5707 2.13789 9.29925 2.25961 8.99988 2.25961C8.7005 2.25961 8.42906 2.13789 8.23232 1.94137L7.46332 1.1731H3.31836V8.85116H13.5948V1.1731H10.5364Z" fill="#69A7FF"/>
</svg>
