<svg width="139" height="37" viewBox="0 0 139 37" fill="none" xmlns="http://www.w3.org/2000/svg">
<rect width="139" height="37" rx="5" fill="#4F4473"/>
<path d="M46.386 24V14.2H50.768C51.8693 14.2 52.728 14.4193 53.344 14.858C53.96 15.2873 54.268 15.908 54.268 16.72C54.268 17.5227 53.974 18.1433 53.386 18.582C52.798 19.0113 52.0233 19.226 51.062 19.226L51.314 18.722C52.406 18.722 53.2507 18.9413 53.848 19.38C54.4453 19.8187 54.744 20.4533 54.744 21.284C54.744 22.1333 54.4313 22.8007 53.806 23.286C53.1807 23.762 52.2567 24 51.034 24H46.386ZM48.178 22.6H50.978C51.6127 22.6 52.0933 22.4833 52.42 22.25C52.7467 22.0073 52.91 21.6387 52.91 21.144C52.91 20.6493 52.7467 20.29 52.42 20.066C52.0933 19.8327 51.6127 19.716 50.978 19.716H48.178V22.6ZM48.178 18.386H50.614C51.202 18.386 51.65 18.2693 51.958 18.036C52.266 17.7933 52.42 17.448 52.42 17C52.42 16.5333 52.266 16.1833 51.958 15.95C51.65 15.7167 51.202 15.6 50.614 15.6H48.178V18.386ZM64.1673 24V16.524H65.9173V24H64.1673ZM60.2613 18.988C61.2226 18.988 61.9506 19.2027 62.4453 19.632C62.9493 20.0613 63.2013 20.668 63.2013 21.452C63.2013 22.264 62.9213 22.8987 62.3613 23.356C61.8106 23.804 61.0266 24.0233 60.0093 24.014L56.6213 24V16.524H58.3713V18.974L60.2613 18.988ZM59.8553 22.726C60.3686 22.7353 60.7606 22.628 61.0313 22.404C61.302 22.18 61.4373 21.8533 61.4373 21.424C61.4373 20.9947 61.302 20.6867 61.0313 20.5C60.77 20.304 60.378 20.2013 59.8553 20.192L58.3713 20.178V22.712L59.8553 22.726ZM70.54 24.126C69.9707 24.126 69.406 24.0607 68.846 23.93C68.2954 23.79 67.796 23.594 67.348 23.342L67.838 22.04C68.202 22.2453 68.6127 22.404 69.07 22.516C69.5274 22.628 69.9847 22.684 70.442 22.684C70.834 22.684 71.17 22.6467 71.45 22.572C71.73 22.488 71.9447 22.3667 72.094 22.208C72.2527 22.0493 72.332 21.8673 72.332 21.662C72.332 21.3633 72.2014 21.1393 71.94 20.99C71.688 20.8313 71.324 20.752 70.848 20.752H69.406V19.576H70.708C71.0067 19.576 71.2587 19.5433 71.464 19.478C71.6787 19.4127 71.842 19.3147 71.954 19.184C72.066 19.0533 72.122 18.8993 72.122 18.722C72.122 18.5447 72.052 18.3907 71.912 18.26C71.7814 18.12 71.59 18.0173 71.338 17.952C71.086 17.8773 70.7827 17.84 70.428 17.84C70.0547 17.84 69.6674 17.8867 69.266 17.98C68.874 18.0733 68.4727 18.2087 68.062 18.386L67.614 17.098C68.09 16.8833 68.552 16.72 69 16.608C69.4574 16.4867 69.91 16.4213 70.358 16.412C71.0394 16.384 71.646 16.454 72.178 16.622C72.71 16.79 73.13 17.0327 73.438 17.35C73.746 17.6673 73.9 18.0407 73.9 18.47C73.9 18.8247 73.788 19.1467 73.564 19.436C73.3494 19.716 73.0507 19.9353 72.668 20.094C72.2947 20.2527 71.8654 20.332 71.38 20.332L71.436 19.954C72.2667 19.954 72.92 20.122 73.396 20.458C73.872 20.7847 74.11 21.2327 74.11 21.802C74.11 22.2593 73.956 22.6653 73.648 23.02C73.34 23.3653 72.9154 23.636 72.374 23.832C71.842 24.028 71.2307 24.126 70.54 24.126ZM79.2443 24.098C78.479 24.098 77.7977 23.9347 77.2003 23.608C76.603 23.272 76.1317 22.8147 75.7863 22.236C75.441 21.6573 75.2683 20.9993 75.2683 20.262C75.2683 19.5153 75.441 18.8573 75.7863 18.288C76.1317 17.7093 76.603 17.2567 77.2003 16.93C77.7977 16.6033 78.479 16.44 79.2443 16.44C80.019 16.44 80.705 16.6033 81.3023 16.93C81.909 17.2567 82.3803 17.7047 82.7163 18.274C83.0617 18.8433 83.2343 19.506 83.2343 20.262C83.2343 20.9993 83.0617 21.6573 82.7163 22.236C82.3803 22.8147 81.909 23.272 81.3023 23.608C80.705 23.9347 80.019 24.098 79.2443 24.098ZM79.2443 22.6C79.6737 22.6 80.0563 22.5067 80.3923 22.32C80.7283 22.1333 80.9897 21.8627 81.1763 21.508C81.3723 21.1533 81.4703 20.738 81.4703 20.262C81.4703 19.7767 81.3723 19.3613 81.1763 19.016C80.9897 18.6613 80.7283 18.3907 80.3923 18.204C80.0563 18.0173 79.6783 17.924 79.2583 17.924C78.829 17.924 78.4463 18.0173 78.1103 18.204C77.7837 18.3907 77.5223 18.6613 77.3263 19.016C77.1303 19.3613 77.0323 19.7767 77.0323 20.262C77.0323 20.738 77.1303 21.1533 77.3263 21.508C77.5223 21.8627 77.7837 22.1333 78.1103 22.32C78.4463 22.5067 78.8243 22.6 79.2443 22.6ZM84.9631 24V16.524H88.6171C89.5224 16.524 90.2318 16.692 90.7451 17.028C91.2678 17.364 91.5291 17.84 91.5291 18.456C91.5291 19.0627 91.2864 19.5387 90.8011 19.884C90.3158 20.22 89.6718 20.388 88.8691 20.388L89.0791 19.954C89.9844 19.954 90.6564 20.122 91.0951 20.458C91.5431 20.7847 91.7671 21.2653 91.7671 21.9C91.7671 22.5627 91.5198 23.0807 91.0251 23.454C90.5304 23.818 89.7791 24 88.7711 24H84.9631ZM86.6291 22.726H88.6311C89.1071 22.726 89.4664 22.6513 89.7091 22.502C89.9518 22.3433 90.0731 22.1053 90.0731 21.788C90.0731 21.452 89.9611 21.2047 89.7371 21.046C89.5131 20.8873 89.1631 20.808 88.6871 20.808H86.6291V22.726ZM86.6291 19.646H88.4631C88.9111 19.646 89.2471 19.5667 89.4711 19.408C89.7044 19.24 89.8211 19.0067 89.8211 18.708C89.8211 18.4 89.7044 18.1713 89.4711 18.022C89.2471 17.8727 88.9111 17.798 88.4631 17.798H86.6291V19.646Z" fill="white"/>
</svg>
