<svg width="97" height="20" viewBox="0 0 97 20" fill="none" xmlns="http://www.w3.org/2000/svg">
<path d="M7.776 16V12.464L8.416 13.024H5.344C4.37333 13.024 3.536 12.864 2.832 12.544C2.128 12.224 1.58933 11.76 1.216 11.152C0.842667 10.544 0.656 9.81867 0.656 8.976C0.656 8.10133 0.853333 7.35467 1.248 6.736C1.65333 6.10667 2.21867 5.62667 2.944 5.296C3.66933 4.96533 4.52267 4.8 5.504 4.8H10.336V16H7.776ZM0.688 16L3.472 11.984H6.096L3.424 16H0.688ZM7.776 11.632V6.24L8.416 6.912H5.568C4.832 6.912 4.26667 7.08267 3.872 7.424C3.488 7.76533 3.296 8.272 3.296 8.944C3.296 9.59467 3.48267 10.096 3.856 10.448C4.22933 10.8 4.77867 10.976 5.504 10.976H8.416L7.776 11.632Z" fill="black"/>
<path d="M35.744 16V4.8H37.056L42.08 13.264H41.376L46.336 4.8H47.648L47.664 16H46.128L46.112 7.216H46.48L42.064 14.64H41.328L36.88 7.216H37.28V16H35.744ZM56.0943 16V14.208L56.0143 13.872V10.816C56.0143 10.1653 55.8223 9.664 55.4383 9.312C55.0649 8.94933 54.4996 8.768 53.7423 8.768C53.2409 8.768 52.7503 8.85333 52.2703 9.024C51.7903 9.184 51.3849 9.40267 51.0543 9.68L50.4143 8.528C50.8516 8.176 51.3743 7.90933 51.9823 7.728C52.6009 7.536 53.2463 7.44 53.9183 7.44C55.0809 7.44 55.9769 7.72267 56.6063 8.288C57.2356 8.85333 57.5503 9.71733 57.5503 10.88V16H56.0943ZM53.3103 16.096C52.6809 16.096 52.1263 15.9893 51.6463 15.776C51.1769 15.5627 50.8143 15.2693 50.5583 14.896C50.3023 14.512 50.1743 14.08 50.1743 13.6C50.1743 13.1413 50.2809 12.7253 50.4943 12.352C50.7183 11.9787 51.0756 11.68 51.5663 11.456C52.0676 11.232 52.7396 11.12 53.5823 11.12H56.2703V12.224H53.6463C52.8783 12.224 52.3609 12.352 52.0943 12.608C51.8276 12.864 51.6943 13.1733 51.6943 13.536C51.6943 13.952 51.8596 14.288 52.1903 14.544C52.5209 14.7893 52.9796 14.912 53.5663 14.912C54.1423 14.912 54.6436 14.784 55.0703 14.528C55.5076 14.272 55.8223 13.8987 56.0143 13.408L56.3183 14.464C56.1156 14.9653 55.7583 15.3653 55.2463 15.664C54.7343 15.952 54.0889 16.096 53.3103 16.096ZM64.0121 16.096C63.1481 16.096 62.3748 15.9093 61.6921 15.536C61.0201 15.1627 60.4921 14.6507 60.1081 14C59.7241 13.3493 59.5321 12.6027 59.5321 11.76C59.5321 10.9173 59.7241 10.1707 60.1081 9.52C60.4921 8.86933 61.0201 8.36267 61.6921 8C62.3748 7.62667 63.1481 7.44 64.0121 7.44C64.7801 7.44 65.4628 7.59467 66.0601 7.904C66.6681 8.20267 67.1375 8.65067 67.4681 9.248L66.3001 10C66.0228 9.584 65.6815 9.28 65.2761 9.088C64.8815 8.88533 64.4548 8.784 63.9961 8.784C63.4415 8.784 62.9455 8.90667 62.5081 9.152C62.0708 9.39733 61.7241 9.744 61.4681 10.192C61.2121 10.6293 61.0841 11.152 61.0841 11.76C61.0841 12.368 61.2121 12.896 61.4681 13.344C61.7241 13.792 62.0708 14.1387 62.5081 14.384C62.9455 14.6293 63.4415 14.752 63.9961 14.752C64.4548 14.752 64.8815 14.656 65.2761 14.464C65.6815 14.2613 66.0228 13.952 66.3001 13.536L67.4681 14.272C67.1375 14.8587 66.6681 15.312 66.0601 15.632C65.4628 15.9413 64.7801 16.096 64.0121 16.096ZM71.0274 16V8.464L71.4114 8.864H67.9234V7.52H75.6674V8.864H72.1954L72.5634 8.464V16H71.0274ZM80.639 16.096C79.7323 16.096 78.9323 15.9093 78.239 15.536C77.5563 15.1627 77.023 14.6507 76.639 14C76.2657 13.3493 76.079 12.6027 76.079 11.76C76.079 10.9173 76.2603 10.1707 76.623 9.52C76.9963 8.86933 77.503 8.36267 78.143 8C78.7937 7.62667 79.5243 7.44 80.335 7.44C81.1563 7.44 81.8817 7.62133 82.511 7.984C83.1403 8.34667 83.631 8.85867 83.983 9.52C84.3457 10.1707 84.527 10.9333 84.527 11.808C84.527 11.872 84.5217 11.9467 84.511 12.032C84.511 12.1173 84.5057 12.1973 84.495 12.272H77.279V11.168H83.695L83.071 11.552C83.0817 11.008 82.9697 10.5227 82.735 10.096C82.5003 9.66933 82.175 9.33867 81.759 9.104C81.3537 8.85867 80.879 8.736 80.335 8.736C79.8017 8.736 79.327 8.85867 78.911 9.104C78.495 9.33867 78.1697 9.67467 77.935 10.112C77.7003 10.5387 77.583 11.0293 77.583 11.584V11.84C77.583 12.4053 77.711 12.912 77.967 13.36C78.2337 13.7973 78.6017 14.1387 79.071 14.384C79.5403 14.6293 80.079 14.752 80.687 14.752C81.1883 14.752 81.6417 14.6667 82.047 14.496C82.463 14.3253 82.8257 14.0693 83.135 13.728L83.983 14.72C83.599 15.168 83.119 15.5093 82.543 15.744C81.9777 15.9787 81.343 16.096 80.639 16.096ZM91.4059 16.096C90.7019 16.096 90.0565 15.936 89.4699 15.616C88.8939 15.2853 88.4299 14.8 88.0779 14.16C87.7365 13.52 87.5659 12.72 87.5659 11.76C87.5659 10.8 87.7312 10 88.0619 9.36C88.4032 8.72 88.8619 8.24 89.4379 7.92C90.0245 7.6 90.6805 7.44 91.4059 7.44C92.2379 7.44 92.9739 7.62133 93.6139 7.984C94.2539 8.34667 94.7605 8.85333 95.1339 9.504C95.5072 10.144 95.6939 10.896 95.6939 11.76C95.6939 12.624 95.5072 13.3813 95.1339 14.032C94.7605 14.6827 94.2539 15.1893 93.6139 15.552C92.9739 15.9147 92.2379 16.096 91.4059 16.096ZM86.9099 19.104V7.52H88.3819V9.808L88.2859 11.776L88.4459 13.744V19.104H86.9099ZM91.2779 14.752C91.8219 14.752 92.3072 14.6293 92.7339 14.384C93.1712 14.1387 93.5125 13.792 93.7579 13.344C94.0139 12.8853 94.1419 12.3573 94.1419 11.76C94.1419 11.152 94.0139 10.6293 93.7579 10.192C93.5125 9.744 93.1712 9.39733 92.7339 9.152C92.3072 8.90667 91.8219 8.784 91.2779 8.784C90.7445 8.784 90.2592 8.90667 89.8219 9.152C89.3952 9.39733 89.0539 9.744 88.7979 10.192C88.5525 10.6293 88.4299 11.152 88.4299 11.76C88.4299 12.3573 88.5525 12.8853 88.7979 13.344C89.0539 13.792 89.3952 14.1387 89.8219 14.384C90.2592 14.6293 90.7445 14.752 91.2779 14.752Z" fill="black"/>
<path d="M29.6079 15.7404L32.0001 16.827C32.0001 17.4271 31.5137 17.9135 30.9135 17.9135H29.6079V15.7404Z" fill="#9CBFF0"/>
<path d="M14 16.827C14 17.4271 14.4864 17.9135 15.0865 17.9135H21.6056L23 17.2163L24.3944 17.9135H29.6323C30.2324 17.9135 30.7188 17.4271 30.7188 16.827L23 13.5674L14 16.827Z" fill="#C0D4ED"/>
<path d="M20.519 16.827L22.9999 15.1972L25.4808 16.827C25.4808 17.4271 24.9944 17.9135 24.3943 17.9135H21.6056C21.0054 17.9135 20.519 17.4271 20.519 16.827Z" fill="#69A7FF"/>
<path d="M29.6028 12.9915C29.4043 12.6739 29.0563 12.4809 28.6814 12.4809L23 10.8511L30.7188 16.827H32L29.6028 12.9915Z" fill="#C0D4ED"/>
<path d="M28.3216 12.9915L28.6815 13.5674L27.9095 14.3823L29.7001 15.1972L30.7188 16.827H14L16.3972 12.9915C16.5957 12.6739 16.9437 12.4809 17.3186 12.4809L23 10.8511L27.4002 12.4809C27.775 12.4809 28.1231 12.6739 28.3216 12.9915Z" fill="#DEECFF"/>
<path d="M28.6813 13.5674H27.4L26.8228 14.3823L28.4186 15.1972H29.6999L28.6813 13.5674Z" fill="#69A7FF"/>
<path d="M17.3184 13.5674L16.2998 15.1972H28.4188L27.4002 13.5674H17.3184Z" fill="#9CBFF0"/>
<path d="M28.6817 2.08652H27.5952V12.4809H28.6817C29.2818 12.4809 29.7683 11.9944 29.7683 11.3944V3.17304C29.7683 2.57295 29.2818 2.08652 28.6817 2.08652Z" fill="#404242"/>
<path d="M28.6815 11.3944V10.8505L27.0517 7.01178L28.6815 3.17307C28.6815 2.57298 28.195 2.08655 27.5949 2.08655H17.3185C16.7184 2.08655 16.2319 2.57298 16.2319 3.17307V11.3944C16.2319 11.9945 16.7184 12.4809 17.3185 12.4809H27.5949C28.195 12.4809 28.6815 11.9944 28.6815 11.3944Z" fill="#565959"/>
<path d="M28.6815 3.17296L27.5952 3.17227C27.5952 3.17245 20.7681 7.0117 20.7681 7.0117C20.7681 7.0117 27.5951 10.851 27.595 10.8511L28.6815 10.8505C28.6815 10.8505 28.6814 3.1731 28.6815 3.17296Z" fill="#4B88D5"/>
<path d="M24.5364 3.17303L23.7682 3.94131C23.5707 4.13783 23.2992 4.25955 22.9999 4.25955C22.7005 4.25955 22.4291 4.13783 22.2323 3.94131L21.4633 3.17303H17.3184V10.8511H27.5948V3.17303H24.5364Z" fill="#69A7FF"/>
</svg>
